HIERARCHY
ROOT root
{
	OFFSET 0.000000 0.000000 0.000000
	CHANNELS 6 Xposition Yposition Zposition Zrotation Yrotation Xrotation
	JOINT lhip
	{
		OFFSET 0.058581 -0.082280 -0.017664
		CHANNELS 3 Zrotation Yrotation Xrotation
		JOINT lknee
		{
			OFFSET 0.043451 -0.386469 0.008037
			CHANNELS 3 Zrotation Yrotation Xrotation
			JOINT lankle
			{
				OFFSET -0.014790 -0.426874 -0.037428
				CHANNELS 3 Zrotation Yrotation Xrotation
				JOINT ltoe
				{
					OFFSET 0.041054 -0.060286 0.122042
					CHANNELS 3 Zrotation Yrotation Xrotation
					End Site
					{
						OFFSET 0.000000 0.000000 0.000000
					}
				}
			}
		}
	}
	JOINT rhip
	{
		OFFSET -0.060310 -0.090513 -0.013543
		CHANNELS 3 Zrotation Yrotation Xrotation
		JOINT rknee
		{
			OFFSET -0.043257 -0.383688 -0.004843
			CHANNELS 3 Zrotation Yrotation Xrotation
			JOINT rankle
			{
				OFFSET 0.019056 -0.420046 -0.034562
				CHANNELS 3 Zrotation Yrotation Xrotation
				JOINT rtoe
				{
					OFFSET -0.034840 -0.062106 0.130323
					CHANNELS 3 Zrotation Yrotation Xrotation
					End Site
					{
						OFFSET 0.000000 0.000000 0.000000
					}
				}
			}
		}
	}
	JOINT lowerback
	{
		OFFSET 0.004439 0.124404 -0.038385
		CHANNELS 3 Zrotation Yrotation Xrotation
		JOINT upperback
		{
			OFFSET 0.004488 0.137956 0.026820
			CHANNELS 3 Zrotation Yrotation Xrotation
			JOINT chest
			{
				OFFSET -0.002265 0.056032 0.002855
				CHANNELS 3 Zrotation Yrotation Xrotation
				JOINT lowerneck
				{
					OFFSET -0.013390 0.211636 -0.033468
					CHANNELS 3 Zrotation Yrotation Xrotation
					JOINT upperneck
					{
						OFFSET 0.010113 0.088937 0.050410
						CHANNELS 3 Zrotation Yrotation Xrotation
						End Site
						{
							OFFSET 0.000000 0.000000 0.000000
						}
					}
				}
				JOINT lclavicle
				{
					OFFSET 0.071702 0.114000 -0.018898
					CHANNELS 3 Zrotation Yrotation Xrotation
					JOINT lshoulder
					{
						OFFSET 0.122921 0.045205 -0.019046
						CHANNELS 3 Zrotation Yrotation Xrotation
						JOINT lelbow
						{
							OFFSET 0.255332 -0.015649 -0.022946
							CHANNELS 3 Zrotation Yrotation Xrotation
							JOINT lwrist
							{
								OFFSET 0.265709 0.012698 -0.007375
								CHANNELS 3 Zrotation Yrotation Xrotation
								End Site
								{
									OFFSET 0.000000 0.000000 0.000000
								}
							}
						}
					}
				}
				JOINT rclavicle
				{
					OFFSET -0.082954 0.112472 -0.023707
					CHANNELS 3 Zrotation Yrotation Xrotation
					JOINT rshoulder
					{
						OFFSET -0.113228 0.046853 -0.008472
						CHANNELS 3 Zrotation Yrotation Xrotation
						JOINT relbow
						{
							OFFSET -0.260127 -0.014369 -0.031269
							CHANNELS 3 Zrotation Yrotation Xrotation
							JOINT rwrist
							{
								OFFSET -0.269108 0.006794 -0.006027
								CHANNELS 3 Zrotation Yrotation Xrotation
								End Site
								{
									OFFSET 0.000000 0.000000 0.000000
								}
							}
						}
					}
				}
			}
		}
	}
}
MOTION
Frames: 13
Frame Time: 0.033333
-0.667607 0.507644 0.939630 -18.965347 1.617826 92.723660 2.309097 3.130558 -27.551629 -0.106043 22.637643 41.529817 9.765587 13.706474 -23.221488 0.000000 -0.000000 0.000000 -6.371999 -7.887298 4.577833 -2.860169 -2.512626 28.295938 4.137402 -5.569360 -17.945702 0.000000 -0.000000 0.000000 2.773263 2.469625 4.831925 -3.213605 -3.984742 -4.030155 -1.900320 0.447246 2.438651 -2.043457 19.878426 5.930879 -3.197211 38.371915 7.234654 -23.360668 1.307114 0.874305 -65.730818 -3.144519 11.260334 -118.414263 -80.317993 144.966076 13.194479 -6.632400 -20.064810 8.949368 -3.488174 0.098197 53.453294 11.479389 10.320212 -135.762182 66.803188 -109.464713 -30.878652 17.298472 6.877704 
-0.666484 0.501358 0.939159 -12.654074 1.298910 91.988672 0.591249 3.992654 -23.678870 -2.035252 22.887579 38.502844 9.025268 12.992378 -23.949253 0.000000 -0.000000 0.000000 -6.251135 -8.412309 6.340611 -2.482325 -4.460307 30.113199 4.614663 -5.683498 -15.875914 0.000000 -0.000000 0.000000 2.379519 2.928770 3.645333 -2.564849 -3.324636 -2.852813 -1.788138 0.846086 2.552841 -0.702204 17.881080 6.691964 -3.204931 35.016908 8.558818 -23.128615 1.859986 1.015952 -64.628524 -1.158348 12.023147 -111.063086 -77.746497 137.513036 11.505360 -7.556770 -18.831360 9.692966 -2.408411 -1.019659 52.678614 14.415888 11.121008 -136.736755 67.212287 -110.780191 -30.245370 18.299808 8.474902 
-0.661969 0.494082 0.939412 -5.761588 0.533268 92.337045 -2.080181 3.492653 -20.264702 -3.680409 20.444888 30.881104 11.260015 12.739055 -26.263721 0.000000 -0.000000 0.000000 -5.867959 -7.525317 4.877107 -2.191194 -6.570275 35.049108 5.354279 -7.172134 -12.374841 0.000000 -0.000000 0.000000 1.406499 2.917107 1.770636 -1.697904 -2.510924 -2.791235 -1.918207 1.029871 3.018606 1.135481 16.139090 7.142038 -3.606811 30.773396 10.550286 -22.630155 2.723843 1.657017 -63.215597 -0.070319 14.178048 -108.732247 -76.558717 135.303744 9.829717 -8.102039 -18.707527 11.262745 -1.939238 -1.914769 52.691350 17.470831 13.428376 -135.665564 66.993006 -109.561454 -28.540399 19.887322 9.669228 
-0.655101 0.487498 0.942098 1.780717 -1.231324 92.196961 -4.638455 -1.338633 -17.555617 -6.410138 16.543493 25.831944 12.808988 14.987903 -24.995849 0.000000 -0.000000 0.000000 -7.102964 -6.312717 1.387522 -1.681130 -9.644521 43.511598 5.571082 -8.911888 -6.623925 0.000000 -0.000000 0.000000 -0.391757 3.011150 0.971174 -0.867452 -2.161074 -3.328090 -2.497810 1.014025 4.181707 2.784796 14.837020 6.430724 -4.069463 25.145898 12.627456 -22.174266 3.928005 1.794575 -60.838123 -0.436014 16.810292 -107.134123 -76.193987 132.987837 7.329216 -8.971141 -19.431634 13.212221 -2.170260 -3.276835 53.985989 20.412145 16.880058 -131.954011 67.054456 -104.390628 -27.455426 20.790103 11.497969 
-0.649278 0.480566 0.946307 9.072045 -2.509661 91.386290 -6.633230 -4.646672 -15.000908 -7.658930 13.050545 23.394707 13.181638 14.645361 -23.612826 0.000000 -0.000000 0.000000 -8.660765 -6.155412 -2.725874 -1.173562 -11.633870 53.360357 5.015252 -10.013952 -0.980675 0.000000 -0.000000 0.000000 -1.624218 3.025523 0.755930 -0.285024 -1.565266 -3.394751 -3.074460 1.163045 5.047250 3.703976 12.898614 5.814785 -4.502244 19.271051 14.132417 -21.328456 4.614518 1.945050 -58.500011 -0.932123 18.033820 -105.515050 -76.038708 131.514856 2.932850 -11.085131 -20.272385 14.795932 -1.685010 -3.616280 54.920174 22.450778 18.843544 -127.552108 67.330762 -99.015266 -25.344764 21.599318 14.593076 
-0.645317 0.474936 0.950708 15.383591 -3.331534 90.219964 -8.268619 -5.013274 -11.700119 -8.944308 8.625605 20.466544 13.885283 14.254894 -22.695442 0.000000 -0.000000 0.000000 -9.712128 -6.423182 -7.598804 -0.492450 -11.375784 63.097449 4.121511 -11.098917 -0.513317 0.000000 -0.000000 0.000000 -2.414950 3.363269 0.993012 -0.057258 -0.280205 -3.069736 -3.545110 1.518156 5.682071 4.019155 10.233171 5.249962 -4.511277 14.209432 15.111618 -20.352934 4.171071 1.957233 -56.308524 -1.463676 18.495962 -104.449608 -76.053705 130.489946 3.195421 -10.672851 -18.726145 15.320733 -0.665164 -3.858816 55.074109 22.280287 19.129691 -124.059033 67.745511 -94.935528 -20.558819 20.602403 17.883271 
-0.642778 0.470856 0.955169 21.598017 -3.278027 89.538358 -8.630923 -4.573724 -8.925495 -9.946005 4.066897 17.513406 13.636644 13.021866 -21.586351 0.000000 -0.000000 0.000000 -9.270905 -6.091514 -12.803914 -0.483389 -10.716256 69.563683 3.584249 -11.382490 -2.244816 0.000000 -0.000000 0.000000 -2.157553 3.079452 1.289866 -0.129275 0.939618 -3.003817 -3.993692 2.014308 5.948326 4.084037 7.624507 5.438855 -4.187008 10.111061 15.317749 -19.941882 3.867197 1.409352 -53.519692 -1.499020 18.658283 -106.094329 -76.447688 132.166593 1.923055 -10.323943 -16.807075 15.383037 -0.097325 -4.459791 54.348492 20.840258 18.987816 -121.747613 69.520553 -92.583069 -15.382768 17.610487 19.860092 
-0.639612 0.466553 0.960623 29.448673 -3.017651 89.053246 -9.020282 -6.030056 -6.959932 -9.999619 -1.245541 16.149714 12.717696 12.397394 -20.869247 0.000000 -0.000000 0.000000 -9.100829 -5.676171 -17.026610 -0.177432 -10.718519 71.762474 3.677830 -11.309150 -5.491000 0.000000 -0.000000 0.000000 -1.646792 1.649982 1.147097 -0.450893 0.806461 -2.853834 -4.470404 2.448946 6.494596 4.095032 5.405547 5.517946 -3.479474 6.643965 15.515966 -19.936895 4.267149 0.370834 -51.267940 -1.729633 19.519318 -107.349679 -77.921535 131.142553 3.671500 -9.565827 -15.668807 16.031954 -0.028213 -5.072123 52.335998 19.107192 19.133523 -119.529365 72.195985 -90.826534 -9.916011 15.283558 22.725997 
-0.637183 0.461937 0.967001 37.505945 -2.243345 88.669110 -9.229691 -8.279665 -5.398770 -8.874070 -6.262197 15.617554 10.922195 11.217843 -20.345415 0.000000 -0.000000 0.000000 -8.433851 -4.329413 -20.035576 0.204871 -10.194799 70.092050 3.979222 -10.764855 -9.194398 0.000000 -0.000000 0.000000 -1.120786 0.627968 1.085423 -0.431408 0.579912 -2.062682 -4.605728 1.836811 6.092946 3.984703 3.209717 6.122843 -3.219672 3.511246 15.492927 -20.246637 5.056461 0.207720 -49.666996 -1.818233 19.343174 -112.851829 -80.429993 136.495044 -0.221526 -10.068925 -14.532314 16.502228 -0.280893 -4.793076 50.016259 16.687976 19.110460 -120.437759 74.914301 -91.443658 -5.780066 14.091399 23.863483 
-0.636107 0.456994 0.973091 44.924849 -1.359685 88.763309 -9.386868 -10.678732 -3.875452 -7.060988 -11.543130 14.328944 9.579007 10.790508 -19.493158 0.000000 -0.000000 0.000000 -7.717261 -2.225166 -22.450761 1.402535 -8.356484 65.348017 5.181328 -8.868302 -13.401419 0.000000 -0.000000 0.000000 -0.911632 0.042418 1.171513 -0.145456 0.382222 -2.082328 -4.506484 1.349900 6.070429 4.039146 1.689231 6.198405 -3.076629 -0.247552 16.020237 -20.099232 5.988262 0.268420 -49.708288 -2.725380 19.397252 -110.224642 -81.978406 132.093295 1.331645 -11.793348 -13.588234 16.976518 -1.253966 -4.490077 48.128196 13.929597 19.329237 -125.000274 77.639232 -95.665842 -5.286435 14.387663 24.673169 
-0.635847 0.451790 0.978692 52.140701 -0.279719 89.229928 -8.419556 -11.526188 -2.845160 -5.752123 -16.194382 12.855552 7.633623 8.928479 -19.274462 0.000000 -0.000000 0.000000 -7.052104 -0.255940 -23.493960 2.489246 -6.143878 57.652958 6.607854 -5.790251 -16.181223 0.000000 -0.000000 0.000000 -0.810873 -0.490287 1.177375 0.284217 0.099260 -1.878459 -4.166653 0.938333 5.803742 4.190726 0.030830 6.172449 -2.897680 -4.091965 16.113197 -20.301124 6.936870 0.413054 -49.085937 -3.176365 19.074251 -117.859514 -83.268120 140.122301 -1.431970 -11.436180 -11.593452 18.048631 -2.540439 -4.004479 46.446444 11.179483 18.788986 -132.901832 79.243099 -102.531393 -3.818376 13.663579 25.389075 
-0.635002 0.446210 0.983203 59.452257 0.446985 89.573039 -6.720680 -11.232260 -2.315878 -6.103911 -20.660350 12.056041 5.881942 5.719158 -18.967630 0.000000 -0.000000 0.000000 -6.417046 0.998682 -22.545956 3.666018 -2.156861 48.000086 7.675840 -3.151597 -18.458422 0.000000 -0.000000 0.000000 -0.992056 -0.784967 1.044874 0.634225 -0.818381 -0.920557 -3.805106 0.611032 5.452569 3.974381 -1.367785 6.172810 -2.172786 -7.360661 15.770740 -20.082212 7.483897 0.309110 -49.280018 -3.455243 18.819821 -124.596009 -84.029398 146.313608 1.681843 -10.014554 -10.701621 18.612773 -3.532466 -3.707121 46.411356 7.969677 18.356775 -139.153662 79.781398 -108.433845 -3.248903 12.101084 25.403682 
-0.632747 0.439946 0.987125 66.682434 1.077111 89.809030 -5.054874 -11.265569 -1.970188 -6.470337 -24.569655 11.833915 4.157244 2.163628 -18.802498 0.000000 -0.000000 0.000000 -5.420145 2.545548 -20.020657 3.755442 3.190486 38.425392 8.454253 0.029670 -19.770210 0.000000 -0.000000 0.000000 -0.770150 -1.051603 1.436950 0.755599 -1.832746 -0.936608 -3.773472 0.280535 5.364543 3.805677 -2.744328 6.527047 -1.296229 -10.471266 15.669834 -19.754919 8.308611 0.382668 -49.043431 -3.576614 18.098203 -131.344068 -83.999423 152.867326 0.408807 -10.619793 -10.979959 18.935361 -4.794384 -3.367685 47.711060 5.002490 17.842550 -140.690638 80.138699 -109.922578 -2.938454 11.207399 23.741174 
